<mxfile host="app.diagrams.net" agent="Mozilla/5.0 (Macintosh; Intel Mac OS X 10_15_7) AppleWebKit/537.36 (KHTML, like Gecko) Chrome/131.0.0.0 Safari/537.36" version="24.9.1" pages="2">
  <diagram name="App Overview" id="0c5tFVvAAkG9lXj8FfHK">
    <mxGraphModel dx="1140" dy="722" grid="1" gridSize="10" guides="1" tooltips="1" connect="1" arrows="1" fold="1" page="1" pageScale="1" pageWidth="850" pageHeight="1100" math="0" shadow="0">
      <root>
        <mxCell id="0" />
        <mxCell id="1" parent="0" />
        <mxCell id="r4vun5KaD06_ax7y5HN8-2" value="Actor" style="shape=umlActor;verticalLabelPosition=bottom;verticalAlign=top;html=1;outlineConnect=0;" vertex="1" parent="1">
          <mxGeometry x="30" y="250" width="30" height="60" as="geometry" />
        </mxCell>
        <mxCell id="r4vun5KaD06_ax7y5HN8-3" value="" style="endArrow=classic;html=1;rounded=0;" edge="1" parent="1">
          <mxGeometry width="50" height="50" relative="1" as="geometry">
            <mxPoint x="50" y="279.5" as="sourcePoint" />
            <mxPoint x="170" y="279.5" as="targetPoint" />
          </mxGeometry>
        </mxCell>
        <mxCell id="r4vun5KaD06_ax7y5HN8-12" value="" style="endArrow=classic;html=1;rounded=0;" edge="1" parent="1" source="r4vun5KaD06_ax7y5HN8-11">
          <mxGeometry width="50" height="50" relative="1" as="geometry">
            <mxPoint x="770" y="80" as="sourcePoint" />
            <mxPoint x="1030" y="80" as="targetPoint" />
          </mxGeometry>
        </mxCell>
        <mxCell id="r4vun5KaD06_ax7y5HN8-21" value="Click&lt;div&gt;&lt;br&gt;&lt;/div&gt;" style="edgeLabel;html=1;align=center;verticalAlign=middle;resizable=0;points=[];" vertex="1" connectable="0" parent="r4vun5KaD06_ax7y5HN8-12">
          <mxGeometry x="0.2343" y="4" relative="1" as="geometry">
            <mxPoint as="offset" />
          </mxGeometry>
        </mxCell>
        <mxCell id="r4vun5KaD06_ax7y5HN8-14" value="" style="group" vertex="1" connectable="0" parent="1">
          <mxGeometry x="170" y="35" width="615" height="615" as="geometry" />
        </mxCell>
        <mxCell id="r4vun5KaD06_ax7y5HN8-1" value="" style="whiteSpace=wrap;html=1;aspect=fixed;" vertex="1" parent="r4vun5KaD06_ax7y5HN8-14">
          <mxGeometry width="615" height="615" as="geometry" />
        </mxCell>
        <mxCell id="r4vun5KaD06_ax7y5HN8-6" value="Post 1" style="rounded=0;whiteSpace=wrap;html=1;" vertex="1" parent="r4vun5KaD06_ax7y5HN8-14">
          <mxGeometry x="60" y="115" width="500" height="50" as="geometry" />
        </mxCell>
        <mxCell id="r4vun5KaD06_ax7y5HN8-9" value="Post 2" style="rounded=0;whiteSpace=wrap;html=1;" vertex="1" parent="r4vun5KaD06_ax7y5HN8-14">
          <mxGeometry x="60" y="205" width="500" height="50" as="geometry" />
        </mxCell>
        <mxCell id="r4vun5KaD06_ax7y5HN8-10" value="Blog" style="text;html=1;align=center;verticalAlign=middle;whiteSpace=wrap;rounded=0;" vertex="1" parent="r4vun5KaD06_ax7y5HN8-14">
          <mxGeometry x="280" y="25" width="60" height="30" as="geometry" />
        </mxCell>
        <mxCell id="r4vun5KaD06_ax7y5HN8-11" value="Create Post" style="rounded=0;whiteSpace=wrap;html=1;" vertex="1" parent="r4vun5KaD06_ax7y5HN8-14">
          <mxGeometry x="480" y="15" width="120" height="60" as="geometry" />
        </mxCell>
        <mxCell id="r4vun5KaD06_ax7y5HN8-15" value="" style="group" vertex="1" connectable="0" parent="1">
          <mxGeometry x="1030" y="40" width="615" height="615" as="geometry" />
        </mxCell>
        <mxCell id="r4vun5KaD06_ax7y5HN8-16" value="" style="whiteSpace=wrap;html=1;aspect=fixed;" vertex="1" parent="r4vun5KaD06_ax7y5HN8-15">
          <mxGeometry width="615" height="615" as="geometry" />
        </mxCell>
        <mxCell id="r4vun5KaD06_ax7y5HN8-18" value="" style="rounded=0;whiteSpace=wrap;html=1;" vertex="1" parent="r4vun5KaD06_ax7y5HN8-15">
          <mxGeometry x="80" y="190" width="450" height="165" as="geometry" />
        </mxCell>
        <mxCell id="r4vun5KaD06_ax7y5HN8-19" value="Blog" style="text;html=1;align=center;verticalAlign=middle;whiteSpace=wrap;rounded=0;" vertex="1" parent="r4vun5KaD06_ax7y5HN8-15">
          <mxGeometry x="280" y="25" width="60" height="30" as="geometry" />
        </mxCell>
        <mxCell id="r4vun5KaD06_ax7y5HN8-20" value="Create Post" style="rounded=0;whiteSpace=wrap;html=1;" vertex="1" parent="r4vun5KaD06_ax7y5HN8-15">
          <mxGeometry x="480" y="15" width="120" height="60" as="geometry" />
        </mxCell>
        <mxCell id="r4vun5KaD06_ax7y5HN8-22" value="Create Post" style="text;html=1;align=center;verticalAlign=middle;whiteSpace=wrap;rounded=0;" vertex="1" parent="r4vun5KaD06_ax7y5HN8-15">
          <mxGeometry x="260" y="200" width="100" height="30" as="geometry" />
        </mxCell>
        <mxCell id="r4vun5KaD06_ax7y5HN8-23" value="" style="verticalLabelPosition=bottom;verticalAlign=top;html=1;shape=mxgraph.basic.x" vertex="1" parent="r4vun5KaD06_ax7y5HN8-15">
          <mxGeometry x="500" y="200" width="10" height="10" as="geometry" />
        </mxCell>
        <mxCell id="r4vun5KaD06_ax7y5HN8-24" value="Title" style="rounded=0;whiteSpace=wrap;html=1;" vertex="1" parent="r4vun5KaD06_ax7y5HN8-15">
          <mxGeometry x="242.5" y="240" width="130" height="20" as="geometry" />
        </mxCell>
        <mxCell id="r4vun5KaD06_ax7y5HN8-25" value="Create" style="rounded=1;fillColor=#0057D8;align=center;strokeColor=none;html=1;whiteSpace=wrap;fontColor=#ffffff;fontSize=12;sketch=0;" vertex="1" parent="r4vun5KaD06_ax7y5HN8-15">
          <mxGeometry x="425" y="310" width="86" height="33" as="geometry" />
        </mxCell>
        <mxCell id="r4vun5KaD06_ax7y5HN8-26" value="" style="html=1;shadow=0;dashed=0;shape=mxgraph.atlassian.checkbox;fillColor=#008465;strokeColor=none;html=1;sketch=0;" vertex="1" parent="r4vun5KaD06_ax7y5HN8-15">
          <mxGeometry x="400" y="319" width="14" height="14" as="geometry" />
        </mxCell>
        <mxCell id="r4vun5KaD06_ax7y5HN8-27" value="Cancel" style="rounded=1;fillColor=#F1F2F4;strokeColor=none;html=1;whiteSpace=wrap;fontColor=#596780;align=center;verticalAlign=middle;fontStyle=0;fontSize=12;sketch=0;" vertex="1" parent="r4vun5KaD06_ax7y5HN8-15">
          <mxGeometry x="328" y="310" width="86" height="33" as="geometry" />
        </mxCell>
        <mxCell id="YO2HToKKsO0m4CNEfXb3-3" value="" style="group" vertex="1" connectable="0" parent="1">
          <mxGeometry x="170.00000000000023" y="710" width="615" height="615" as="geometry" />
        </mxCell>
        <mxCell id="YO2HToKKsO0m4CNEfXb3-4" value="" style="whiteSpace=wrap;html=1;aspect=fixed;" vertex="1" parent="YO2HToKKsO0m4CNEfXb3-3">
          <mxGeometry width="615" height="615" as="geometry" />
        </mxCell>
        <mxCell id="YO2HToKKsO0m4CNEfXb3-7" value="Blog 1" style="text;html=1;align=center;verticalAlign=middle;whiteSpace=wrap;rounded=0;" vertex="1" parent="YO2HToKKsO0m4CNEfXb3-3">
          <mxGeometry x="280" y="25" width="60" height="30" as="geometry" />
        </mxCell>
        <mxCell id="YO2HToKKsO0m4CNEfXb3-9" value="" style="rounded=0;whiteSpace=wrap;html=1;" vertex="1" parent="YO2HToKKsO0m4CNEfXb3-3">
          <mxGeometry x="230" y="520" width="180" height="70" as="geometry" />
        </mxCell>
        <mxCell id="YO2HToKKsO0m4CNEfXb3-10" value="Add Comment" style="rounded=1;fillColor=#0057D8;strokeColor=none;html=1;whiteSpace=wrap;fontColor=#ffffff;align=center;verticalAlign=middle;fontStyle=0;fontSize=12;sketch=0;" vertex="1" parent="YO2HToKKsO0m4CNEfXb3-3">
          <mxGeometry x="419.9999999999998" y="558" width="86" height="33" as="geometry" />
        </mxCell>
        <mxCell id="YO2HToKKsO0m4CNEfXb3-11" value="Comment 1" style="rounded=0;whiteSpace=wrap;html=1;" vertex="1" parent="YO2HToKKsO0m4CNEfXb3-3">
          <mxGeometry x="230" y="400" width="180" height="30" as="geometry" />
        </mxCell>
        <mxCell id="YO2HToKKsO0m4CNEfXb3-12" value="Comment 2" style="rounded=0;whiteSpace=wrap;html=1;" vertex="1" parent="YO2HToKKsO0m4CNEfXb3-3">
          <mxGeometry x="230" y="470" width="180" height="30" as="geometry" />
        </mxCell>
        <mxCell id="YO2HToKKsO0m4CNEfXb3-14" value="Reply to comment" style="text;html=1;align=center;verticalAlign=middle;whiteSpace=wrap;rounded=0;" vertex="1" parent="YO2HToKKsO0m4CNEfXb3-3">
          <mxGeometry x="240" y="430" width="120" height="30" as="geometry" />
        </mxCell>
        <mxCell id="YO2HToKKsO0m4CNEfXb3-17" value="" style="shape=singleArrow;direction=west;whiteSpace=wrap;html=1;" vertex="1" parent="YO2HToKKsO0m4CNEfXb3-3">
          <mxGeometry x="29.999999999999773" y="25" width="100" height="60" as="geometry" />
        </mxCell>
        <mxCell id="YO2HToKKsO0m4CNEfXb3-16" style="edgeStyle=orthogonalEdgeStyle;rounded=0;orthogonalLoop=1;jettySize=auto;html=1;" edge="1" parent="1" source="r4vun5KaD06_ax7y5HN8-9" target="YO2HToKKsO0m4CNEfXb3-4">
          <mxGeometry relative="1" as="geometry" />
        </mxCell>
      </root>
    </mxGraphModel>
  </diagram>
  <diagram id="RkS-4mS7XXtay7RBTQX0" name="App Architecture">
    <mxGraphModel dx="1026" dy="650" grid="1" gridSize="10" guides="1" tooltips="1" connect="1" arrows="1" fold="1" page="1" pageScale="1" pageWidth="850" pageHeight="1100" math="0" shadow="0">
      <root>
        <mxCell id="0" />
        <mxCell id="1" parent="0" />
      </root>
    </mxGraphModel>
  </diagram>
</mxfile>
